{
	"accessors" : 
	[
		{
			"bufferView" : 2,
			"byteOffset" : 0,
			"componentType" : 5126,
			"count" : 3994,
			"max" : 
			[
				1,
				1,
				1,
				1
			],
			"min" : 
			[
				0.006584956776350737,
				0.006584956776350737,
				0.006584956776350737,
				1
			],
			"name" : "accessor_color_m0-PolyPaper21_-166858",
			"type" : "VEC4"
		},
		{
			"bufferView" : 2,
			"byteOffset" : 63904,
			"componentType" : 5126,
			"count" : 9582,
			"max" : 
			[
				1,
				1,
				1,
				1
			],
			"min" : 
			[
				0.006584956776350737,
				0.006584956776350737,
				0.006584956776350737,
				1
			],
			"name" : "accessor_color_m1-PolyPaper3_-166682",
			"type" : "VEC4"
		},
		{
			"bufferView" : 0,
			"byteOffset" : 0,
			"componentType" : 5123,
			"count" : 5862,
			"max" : 
			[
				3993
			],
			"min" : 
			[
				0
			],
			"name" : "accessor_indices_0_m0-PolyPaper21_-166858",
			"type" : "SCALAR"
		},
		{
			"bufferView" : 0,
			"byteOffset" : 11724,
			"componentType" : 5123,
			"count" : 14028,
			"max" : 
			[
				9581
			],
			"min" : 
			[
				0
			],
			"name" : "accessor_indices_0_m1-PolyPaper3_-166682",
			"type" : "SCALAR"
		},
		{
			"bufferView" : 1,
			"byteOffset" : 47928,
			"componentType" : 5126,
			"count" : 3994,
			"max" : 
			[
				0.9977264,
				0.9995109,
				0.9999688
			],
			"min" : 
			[
				-0.9995651,
				-0.9996048,
				-0.9999728
			],
			"name" : "accessor_normal_m0-PolyPaper21_-166858",
			"type" : "VEC3"
		},
		{
			"bufferView" : 1,
			"byteOffset" : 210840,
			"componentType" : 5126,
			"count" : 9582,
			"max" : 
			[
				0.9999157,
				0.999872,
				0.999208
			],
			"min" : 
			[
				-0.9977781999999999,
				-0.9999980000000001,
				-0.9992064000000001
			],
			"name" : "accessor_normal_m1-PolyPaper3_-166682",
			"type" : "VEC3"
		},
		{
			"bufferView" : 1,
			"byteOffset" : 0,
			"componentType" : 5126,
			"count" : 3994,
			"max" : 
			[
				-0.1154699,
				2.23568,
				-0.6466204
			],
			"min" : 
			[
				-0.1986038,
				1.847614,
				-0.76389
			],
			"name" : "accessor_position_m0-PolyPaper21_-166858",
			"type" : "VEC3"
		},
		{
			"bufferView" : 1,
			"byteOffset" : 95856,
			"componentType" : 5126,
			"count" : 9582,
			"max" : 
			[
				-0.1086286,
				2.243218,
				-0.6628738
			],
			"min" : 
			[
				-0.2468724,
				1.847121,
				-0.8334758
			],
			"name" : "accessor_position_m1-PolyPaper3_-166682",
			"type" : "VEC3"
		}
	],
	"asset" : 
	{
		"copyright" : "Unknown",
		"generator" : "glTF 1-to-2 Upgrader for Google Blocks",
		"version" : "2.0"
	},
	"bufferViews" : 
	[
		{
			"buffer" : 0,
			"byteLength" : 39780,
			"byteOffset" : 0,
			"name" : "ushortBufferView",
			"target" : 34963
		},
		{
			"buffer" : 0,
			"byteLength" : 325824,
			"byteOffset" : 39780,
			"byteStride" : 12,
			"name" : "vec3BufferView",
			"target" : 34962
		},
		{
			"buffer" : 0,
			"byteLength" : 217216,
			"byteOffset" : 365604,
			"byteStride" : 16,
			"name" : "vec4BufferView",
			"target" : 34962
		}
	],
	"buffers" : 
	[
		{
			"byteLength" : 582820,
			"name" : "model",
			"uri" : "model.bin"
		}
	],
	"materials" : 
	[
		{
			"alphaMode" : "OPAQUE",
			"doubleSided" : false,
			"name" : "BlocksPaper",
			"pbrMetallicRoughness" : 
			{
				"baseColorFactor" : 
				[
					1,
					1,
					1,
					1
				],
				"metallicFactor" : 0,
				"roughnessFactor" : 0.6
			}
		},
		{
			"alphaMode" : "BLEND",
			"doubleSided" : false,
			"name" : "BlocksGlass",
			"pbrMetallicRoughness" : 
			{
				"baseColorFactor" : 
				[
					0.2,
					0.2,
					1,
					0.3
				],
				"metallicFactor" : 1,
				"roughnessFactor" : 0.4
			}
		},
		{
			"alphaMode" : "OPAQUE",
			"doubleSided" : true,
			"name" : "BlocksGem",
			"pbrMetallicRoughness" : 
			{
				"baseColorFactor" : 
				[
					1,
					0.4,
					1,
					1
				],
				"metallicFactor" : 0,
				"roughnessFactor" : 0.1
			}
		}
	],
	"meshes" : 
	[
		{
			"name" : "mesh_m0-PolyPaper21_-166858",
			"primitives" : 
			[
				{
					"attributes" : 
					{
						"COLOR_0" : 0,
						"NORMAL" : 4,
						"POSITION" : 6
					},
					"indices" : 2,
					"material" : 0,
					"mode" : 4
				}
			]
		},
		{
			"name" : "mesh_m1-PolyPaper3_-166682",
			"primitives" : 
			[
				{
					"attributes" : 
					{
						"COLOR_0" : 1,
						"NORMAL" : 5,
						"POSITION" : 7
					},
					"indices" : 3,
					"material" : 0,
					"mode" : 4
				}
			]
		}
	],
	"nodes" : 
	[
		{
			"matrix" : 
			[
				1,
				0,
				0,
				0,
				0,
				1,
				0,
				0,
				0,
				0,
				1,
				0,
				0,
				0,
				0,
				1
			],
			"mesh" : 0,
			"name" : "node_MeshObject-2036870848-PolyPaper21"
		},
		{
			"matrix" : 
			[
				1,
				0,
				0,
				0,
				0,
				1,
				0,
				0,
				0,
				0,
				1,
				0,
				0,
				0,
				0,
				1
			],
			"mesh" : 1,
			"name" : "node_MeshObject-600591744-PolyPaper3"
		}
	],
	"scene" : 0,
	"scenes" : 
	[
		{
			"extras" : {},
			"name" : "defaultScene",
			"nodes" : 
			[
				0,
				1
			]
		}
	]
}