{
    "asset" : {
        "generator" : "Khronos glTF Blender I/O v0.9.36",
        "version" : "2.0"
    },
    "scene" : 0,
    "scenes" : [
        {
            "name" : "Scene",
            "nodes" : [
                0,
                1,
                2,
                3
            ]
        }
    ],
    "nodes" : [
        {
            "name" : "Light",
            "rotation" : [
                0.16907575726509094,
                0.7558803558349609,
                -0.27217137813568115,
                0.570947527885437
            ],
            "translation" : [
                4.076245307922363,
                5.903861999511719,
                -1.0054539442062378
            ]
        },
        {
            "name" : "Camera",
            "rotation" : [
                0.483536034822464,
                0.33687159419059753,
                -0.20870360732078552,
                0.7804827094078064
            ],
            "translation" : [
                7.358891487121582,
                4.958309173583984,
                6.925790786743164
            ]
        },
        {
            "mesh" : 0,
            "name" : "node-0",
            "rotation" : [
                0.7071068286895752,
                0,
                0,
                0.7071067094802856
            ]
        },
        {
            "mesh" : 1,
            "name" : "node-0.003",
            "rotation" : [
                0.7071068286895752,
                0,
                0,
                0.7071067094802856
            ]
        }
    ],
    "materials" : [
        {
            "doubleSided" : true,
            "name" : "02___Default",
            "pbrMetallicRoughness" : {
                "baseColorFactor" : [
                    1,
                    1,
                    1,
                    1
                ],
                "metallicFactor" : 0,
                "roughnessFactor" : 0.9699476361274719
            }
        },
        {
            "doubleSided" : true,
            "name" : "_crayfishdiffuse",
            "pbrMetallicRoughness" : {
                "baseColorFactor" : [
                    0.9254999756813049,
                    0.2980000078678131,
                    0.2980000078678131,
                    1
                ],
                "metallicFactor" : 0,
                "roughnessFactor" : 0.9124375581741333
            }
        },
        {
            "doubleSided" : true,
            "name" : "Material.001",
            "pbrMetallicRoughness" : {
                "baseColorFactor" : [
                    0.800000011920929,
                    0.800000011920929,
                    0.800000011920929,
                    1
                ],
                "metallicFactor" : 0,
                "roughnessFactor" : 0.5
            }
        }
    ],
    "meshes" : [
        {
            "name" : "buffer-0-mesh-0",
            "primitives" : [
                {
                    "attributes" : {
                        "POSITION" : 0,
                        "NORMAL" : 1,
                        "TEXCOORD_0" : 2
                    },
                    "indices" : 3,
                    "material" : 0
                },
                {
                    "attributes" : {
                        "POSITION" : 4,
                        "NORMAL" : 5,
                        "TEXCOORD_0" : 6
                    },
                    "indices" : 7,
                    "material" : 1
                }
            ]
        },
        {
            "name" : "buffer-0-mesh-0.003",
            "primitives" : [
                {
                    "attributes" : {
                        "POSITION" : 8,
                        "NORMAL" : 9,
                        "COLOR_0" : 10
                    },
                    "indices" : 11,
                    "material" : 2
                }
            ]
        }
    ],
    "accessors" : [
        {
            "bufferView" : 0,
            "componentType" : 5126,
            "count" : 19824,
            "max" : [
                -579519.625,
                990524.8125,
                -453033.875
            ],
            "min" : [
                -1017184.875,
                525699.125,
                -665881.9375
            ],
            "type" : "VEC3"
        },
        {
            "bufferView" : 1,
            "componentType" : 5126,
            "count" : 19824,
            "type" : "VEC3"
        },
        {
            "bufferView" : 2,
            "componentType" : 5126,
            "count" : 19824,
            "type" : "VEC2"
        },
        {
            "bufferView" : 3,
            "componentType" : 5123,
            "count" : 19824,
            "type" : "SCALAR"
        },
        {
            "bufferView" : 4,
            "componentType" : 5126,
            "count" : 2784,
            "max" : [
                -586086.875,
                972306.875,
                -409018.375
            ],
            "min" : [
                -984065.1875,
                528891.375,
                -707414.5
            ],
            "type" : "VEC3"
        },
        {
            "bufferView" : 5,
            "componentType" : 5126,
            "count" : 2784,
            "type" : "VEC3"
        },
        {
            "bufferView" : 6,
            "componentType" : 5126,
            "count" : 2784,
            "type" : "VEC2"
        },
        {
            "bufferView" : 7,
            "componentType" : 5123,
            "count" : 2784,
            "type" : "SCALAR"
        },
        {
            "bufferView" : 8,
            "componentType" : 5126,
            "count" : 6955,
            "max" : [
                2.039910078048706,
                1.377020001411438,
                0.0009000300196930766
            ],
            "min" : [
                -3.187299966812134,
                -4.759439945220947,
                -7.317880153656006
            ],
            "type" : "VEC3"
        },
        {
            "bufferView" : 9,
            "componentType" : 5126,
            "count" : 6955,
            "type" : "VEC3"
        },
        {
            "bufferView" : 10,
            "componentType" : 5126,
            "count" : 6955,
            "type" : "VEC4"
        },
        {
            "bufferView" : 11,
            "componentType" : 5123,
            "count" : 28608,
            "type" : "SCALAR"
        }
    ],
    "bufferViews" : [
        {
            "buffer" : 0,
            "byteLength" : 237888,
            "byteOffset" : 0
        },
        {
            "buffer" : 0,
            "byteLength" : 237888,
            "byteOffset" : 237888
        },
        {
            "buffer" : 0,
            "byteLength" : 158592,
            "byteOffset" : 475776
        },
        {
            "buffer" : 0,
            "byteLength" : 39648,
            "byteOffset" : 634368
        },
        {
            "buffer" : 0,
            "byteLength" : 33408,
            "byteOffset" : 674016
        },
        {
            "buffer" : 0,
            "byteLength" : 33408,
            "byteOffset" : 707424
        },
        {
            "buffer" : 0,
            "byteLength" : 22272,
            "byteOffset" : 740832
        },
        {
            "buffer" : 0,
            "byteLength" : 5568,
            "byteOffset" : 763104
        },
        {
            "buffer" : 0,
            "byteLength" : 83460,
            "byteOffset" : 768672
        },
        {
            "buffer" : 0,
            "byteLength" : 83460,
            "byteOffset" : 852132
        },
        {
            "buffer" : 0,
            "byteLength" : 111280,
            "byteOffset" : 935592
        },
        {
            "buffer" : 0,
            "byteLength" : 57216,
            "byteOffset" : 1046872
        }
    ],
    "buffers" : [
        {
            "byteLength" : 1104088,
            "uri" : "data:application/octet-stream;base64,"
        }
    ]
}
