{
    "asset" : {
        "generator" : "Khronos glTF Blender I/O v0.9.36",
        "version" : "2.0"
    },
    "scene" : 0,
    "scenes" : [
        {
            "name" : "Scene",
            "nodes" : [
                0
            ]
        }
    ],
    "nodes" : [
        {
            "mesh" : 0,
            "name" : "skull",
            "rotation" : [
                0.7071068286895752,
                0,
                0,
                0.7071067094802856
            ]
        }
    ],
    "materials" : [
        {
            "doubleSided" : true,
            "name" : "Dflt0",
            "pbrMetallicRoughness" : {
                "baseColorFactor" : [
                    0.9294121861457825,
                    0.06175748258829117,
                    0.08624137192964554,
                    1
                ],
                "metallicFactor" : 0,
                "roughnessFactor" : 0.9047449827194214
            }
        },
        {
            "doubleSided" : true,
            "name" : "labiaal",
            "pbrMetallicRoughness" : {
                "baseColorFactor" : [
                    0.800000011920929,
                    0.800000011920929,
                    0.800000011920929,
                    1
                ],
                "metallicFactor" : 0,
                "roughnessFactor" : 0.5
            }
        }
    ],
    "meshes" : [
        {
            "name" : "skull",
            "primitives" : [
                {
                    "attributes" : {
                        "POSITION" : 0,
                        "NORMAL" : 1,
                        "COLOR_0" : 2
                    },
                    "indices" : 3,
                    "material" : 0
                },
                {
                    "attributes" : {
                        "POSITION" : 4,
                        "NORMAL" : 5,
                        "COLOR_0" : 6
                    },
                    "indices" : 7,
                    "material" : 1
                }
            ]
        }
    ],
    "accessors" : [
        {
            "bufferView" : 0,
            "componentType" : 5126,
            "count" : 6843,
            "max" : [
                2.039910078048706,
                1.377020001411438,
                0.0009000300196930766
            ],
            "min" : [
                -3.187299966812134,
                -4.759439945220947,
                -7.317880153656006
            ],
            "type" : "VEC3"
        },
        {
            "bufferView" : 1,
            "componentType" : 5126,
            "count" : 6843,
            "type" : "VEC3"
        },
        {
            "bufferView" : 2,
            "componentType" : 5126,
            "count" : 6843,
            "type" : "VEC4"
        },
        {
            "bufferView" : 3,
            "componentType" : 5123,
            "count" : 28770,
            "type" : "SCALAR"
        },
        {
            "bufferView" : 4,
            "componentType" : 5126,
            "count" : 160,
            "max" : [
                0.6542320251464844,
                1.2572499513626099,
                -0.9805560111999512
            ],
            "min" : [
                0.2088019996881485,
                0.9588450193405151,
                -1.3794699907302856
            ],
            "type" : "VEC3"
        },
        {
            "bufferView" : 5,
            "componentType" : 5126,
            "count" : 160,
            "type" : "VEC3"
        },
        {
            "bufferView" : 6,
            "componentType" : 5126,
            "count" : 160,
            "type" : "VEC4"
        },
        {
            "bufferView" : 7,
            "componentType" : 5123,
            "count" : 480,
            "type" : "SCALAR"
        }
    ],
    "bufferViews" : [
        {
            "buffer" : 0,
            "byteLength" : 82116,
            "byteOffset" : 0
        },
        {
            "buffer" : 0,
            "byteLength" : 82116,
            "byteOffset" : 82116
        },
        {
            "buffer" : 0,
            "byteLength" : 109488,
            "byteOffset" : 164232
        },
        {
            "buffer" : 0,
            "byteLength" : 57540,
            "byteOffset" : 273720
        },
        {
            "buffer" : 0,
            "byteLength" : 1920,
            "byteOffset" : 331260
        },
        {
            "buffer" : 0,
            "byteLength" : 1920,
            "byteOffset" : 333180
        },
        {
            "buffer" : 0,
            "byteLength" : 2560,
            "byteOffset" : 335100
        },
        {
            "buffer" : 0,
            "byteLength" : 960,
            "byteOffset" : 337660
        }
    ],
    "buffers" : [
        {
            "byteLength" : 338620,
            "uri" : "data:application/octet-stream;base64,"
        }
    ]
}
